<svg xmlns="http://www.w3.org/2000/svg" width="71.472" height="106.347" viewBox="0 0 71.472 106.347"><defs><style>.a{fill:#82a148;}.b{fill:#afd468;}.c,.e{fill:#f78736;}.d{fill:#59392b;}.f,.g{stroke:none;}.g{fill:#59392b;}</style></defs><g transform="translate(-1005.666 -97)"><g transform="matrix(0.921, -0.391, 0.391, 0.921, 1005.666, 114.582)"><g transform="translate(0 0)"><path class="a" d="M15.285,5.248l.585.009A11.354,11.354,0,0,1,11.6,8.88a.7.7,0,0,0-.4.692.69.69,0,0,0,.506.613l.859.237A26.3,26.3,0,0,1,7.1,13.655a.692.692,0,0,0-.413.687.7.7,0,0,0,.511.622l.451.121A14.476,14.476,0,0,1,1.677,17.18,9.768,9.768,0,0,0,0,15.466a1.058,1.058,0,0,0,.037-.111,7.406,7.406,0,0,1,.78-1.844,23.066,23.066,0,0,1,1.974-2.847c.232.464.474.868.553.994a.7.7,0,0,0,1.291-.4c-.088-1.523,1.4-4.291,2.406-5.912l.776,1.091a.7.7,0,0,0,.752.265.689.689,0,0,0,.511-.613,9.64,9.64,0,0,1,1.765-4.2c.413.543.869,1.026.943,1.11a.7.7,0,0,0,1.05-.042A26.162,26.162,0,0,1,16.4,0,18.161,18.161,0,0,1,14.69,4.2a.7.7,0,0,0,.595,1.045Z" transform="translate(26.972 19.581)"/><path class="b" d="M9.807,24.574a15.35,15.35,0,0,0-.622,1.533.7.7,0,0,0-1.157-.181,25.841,25.841,0,0,0-2.949,4.106,9.428,9.428,0,0,0-.757,1.7,9.787,9.787,0,0,0-1.194-.581,9.6,9.6,0,0,0-2.6-.636c-.7-2.2-.557-5.713-.418-7.538a18.172,18.172,0,0,0,1.728.873.7.7,0,0,0,.831-.214.7.7,0,0,0,0-.855c-1.2-1.523-1.728-5.2-1.932-7.849C.7,14.486.68,14.073.662,13.7l2.095.748a.7.7,0,0,0,.836-1.008,13.916,13.916,0,0,1-1.342-6.6,19.26,19.26,0,0,0,2.239.618.669.669,0,0,0,.557-.13.684.684,0,0,0,.279-.5A40.008,40.008,0,0,1,7.252,0,24.573,24.573,0,0,1,8.91,6.776.7.7,0,0,0,10,7.292l1.036-.7c.39,3.939-1.937,7.979-1.965,8.021A.7.7,0,0,0,9.9,15.624l1.6-.567c-.065.316-.149.646-.246.985a39.943,39.943,0,0,1-3.507,7.478.7.7,0,0,0,.831,1.017l1.31-.464A1.993,1.993,0,0,1,9.807,24.574Z" transform="translate(21.39 2.415)"/><path class="c" d="M27.947,8.072a5.588,5.588,0,0,1-.283,2.29L23.191,7.952a.7.7,0,1,0-.659,1.226l4.658,2.508a38.529,38.529,0,0,1-3.822,6.683l-2.113-1.574a.7.7,0,1,0-.831,1.115l2.146,1.6a107.605,107.605,0,0,1-7.12,8.843l-4.315-3.493a.7.7,0,0,0-.878,1.082l4.259,3.446c-2.429,2.666-4.914,5.151-7.19,7.19L4.581,34.717a.7.7,0,1,0-.78,1.156l2.438,1.653c-.014.014-.028.023-.042.037C2.008,41.136.925,41,.856,40.978c-.427-.232-.715-1.013-.813-2.2-.218-2.578.409-6.5,1.57-10.873L6.55,30.57a.728.728,0,0,0,.334.084.7.7,0,0,0,.33-1.31l-5.22-2.81a93.391,93.391,0,0,1,3.339-9.586L9.1,18.977a.713.713,0,0,0,.334.084.706.706,0,0,0,.613-.367.7.7,0,0,0-.283-.943L5.872,15.657a63.015,63.015,0,0,1,4.872-9.382l6.832,4.12a.67.67,0,0,0,.358.1A.7.7,0,0,0,18.3,9.2L11.533,5.123a16.745,16.745,0,0,1,3.075-3.4A7.974,7.974,0,0,1,19.819,0a.582.582,0,0,0,.125.019.7.7,0,0,0,.093-.009,8.138,8.138,0,0,1,2.48.567A9.085,9.085,0,0,1,27.947,8.072ZM17.069,20.742a.7.7,0,0,0-.07-.985l-3.743-3.251a.7.7,0,1,0-.915,1.05l3.743,3.256a.707.707,0,0,0,.985-.07Z" transform="translate(1.388 34.529)"/><path class="d" d="M45,18.062a.694.694,0,0,0-1.095-.6,50.7,50.7,0,0,0-4.636,3.588,6.182,6.182,0,0,1-.792-1.118.7.7,0,0,0-1.174-.158,14.244,14.244,0,0,0-2.325,4.138l-.457-.638a.688.688,0,0,0-.568-.294.707.707,0,0,0-.578.3c-.112.172-.531.792-1.03,1.64a.72.72,0,0,0-.522-.023l-.55.2A34.6,34.6,0,0,0,34,18.891a9.573,9.573,0,0,0,.433-2.376.7.7,0,0,0-.289-.583.691.691,0,0,0-.643-.093l-1.044.368c.834-1.92,1.929-5.289,1.174-8.518a.7.7,0,0,0-1.072-.424l-1,.676A20.8,20.8,0,0,0,29.108.322a.7.7,0,0,0-1.244.135,67.605,67.605,0,0,0-2.442,7.908,9.748,9.748,0,0,1-2.1-.736.7.7,0,0,0-.676-.019.689.689,0,0,0-.377.559,18.682,18.682,0,0,0,.783,6.882l-1.514-.541a.7.7,0,0,0-.932.662c0,.112.014,1.03.112,2.316a27.284,27.284,0,0,0,1.179,6.6,2.772,2.772,0,0,1-.489-.377.7.7,0,0,0-.731-.182.689.689,0,0,0-.471.578c-.033.242-.643,5.48.238,8.9a9.439,9.439,0,0,0-5.256,2C7.423,41.081-.657,65.181.042,73.415c.149,1.757.657,2.842,1.552,3.322a1.462,1.462,0,0,0,.708.172,6.865,6.865,0,0,0,3.4-1.561c7.6-5.3,26.172-25.647,25.115-33.061a12.11,12.11,0,0,0-1.375-4.2c1.57-.261,4.981-1.053,7.106-3.225a.7.7,0,0,0-.256-1.146c1.663-.857,4.086-2.269,5.1-3.649a.7.7,0,0,0,.1-.643.723.723,0,0,0-.475-.447l-.368-.1a10.321,10.321,0,0,0,3.97-4.469.686.686,0,0,0-.065-.643.678.678,0,0,0-.573-.312l-.573-.009a18.25,18.25,0,0,0,1.319-3.565A9.169,9.169,0,0,0,45,18.062ZM21.481,25.471a18.209,18.209,0,0,0,1.733.876.707.707,0,0,0,.834-.214.7.7,0,0,0,0-.857c-1.2-1.528-1.733-5.219-1.938-7.875-.033-.443-.056-.857-.074-1.23l2.1.75a.7.7,0,0,0,.839-1.011,13.961,13.961,0,0,1-1.346-6.626,19.317,19.317,0,0,0,2.246.62.672.672,0,0,0,.559-.13.686.686,0,0,0,.279-.5,40.131,40.131,0,0,1,1.934-6.845,24.658,24.658,0,0,1,1.663,6.8.7.7,0,0,0,1.09.517l1.039-.7c.391,3.952-1.943,8.005-1.971,8.047A.7.7,0,0,0,31.3,18.1l1.6-.568c-.065.317-.149.648-.247.988a40.068,40.068,0,0,1-3.518,7.5.7.7,0,0,0,.834,1.021l1.314-.466a2,2,0,0,1-.079.5,15.41,15.41,0,0,0-.624,1.538.7.7,0,0,0-1.16-.182,25.92,25.92,0,0,0-2.959,4.119,9.463,9.463,0,0,0-.759,1.7,9.819,9.819,0,0,0-1.2-.582,9.635,9.635,0,0,0-2.6-.638C21.2,30.825,21.341,27.3,21.481,25.471Zm7.665,19.315-4.487-2.418A.7.7,0,1,0,24,43.6l4.673,2.516a38.659,38.659,0,0,1-3.835,6.705l-2.12-1.58a.7.7,0,1,0-.834,1.118l2.153,1.608a107.943,107.943,0,0,1-7.143,8.872l-4.329-3.5a.7.7,0,0,0-.881,1.086l4.273,3.458c-2.437,2.675-4.93,5.168-7.213,7.213L5.988,69.221a.7.7,0,1,0-.783,1.16L7.651,72.04c-.014.014-.028.023-.042.037-4.2,3.583-5.289,3.444-5.358,3.425-.429-.233-.718-1.016-.815-2.2-.219-2.586.41-6.524,1.575-10.909l4.953,2.67a.73.73,0,0,0,.335.084A.7.7,0,0,0,8.63,63.83L3.393,61.011a93.67,93.67,0,0,1,3.35-9.618l3.774,2.036a.715.715,0,0,0,.335.084.708.708,0,0,0,.615-.368.7.7,0,0,0-.284-.946l-3.9-2.1a63.225,63.225,0,0,1,4.888-9.413l6.854,4.133a.672.672,0,0,0,.359.1.7.7,0,0,0,.363-1.3l-6.784-4.091a16.8,16.8,0,0,1,3.084-3.416,8,8,0,0,1,5.228-1.719.585.585,0,0,0,.126.019.7.7,0,0,0,.093-.009,8.165,8.165,0,0,1,2.488.568,9.115,9.115,0,0,1,5.447,7.516A5.607,5.607,0,0,1,29.145,44.785ZM41.651,24.473a.7.7,0,0,0,.6.354l.587.009a11.391,11.391,0,0,1-4.287,3.635.7.7,0,0,0-.4.694.692.692,0,0,0,.508.615l.862.238a26.388,26.388,0,0,1-5.484,3.243.694.694,0,0,0-.415.69.7.7,0,0,0,.513.624l.452.121A14.523,14.523,0,0,1,28.6,36.8a9.8,9.8,0,0,0-1.682-1.719,1.051,1.051,0,0,0,.037-.112,7.435,7.435,0,0,1,.783-1.85,23.152,23.152,0,0,1,1.98-2.856c.233.466.475.871.554,1a.7.7,0,0,0,1.3-.405c-.089-1.528,1.407-4.306,2.414-5.932l.778,1.1a.7.7,0,0,0,.755.266.691.691,0,0,0,.513-.615,9.673,9.673,0,0,1,1.771-4.217c.415.545.871,1.03.946,1.114a.707.707,0,0,0,1.053-.042,26.246,26.246,0,0,1,3.574-2.959,18.228,18.228,0,0,1-1.715,4.217A.7.7,0,0,0,41.651,24.473Z"/><path class="d" d="M1.154.171A.7.7,0,1,0,.239,1.22L3.982,4.476A.7.7,0,0,0,4.9,3.422Z" transform="translate(13.54 50.79)"/></g></g><g class="e" transform="translate(1029.219 189.033)"><path class="f" d="M 5.482186794281006 12.31459999084473 C 3.594646692276001 12.31459999084473 1.999996781349182 9.952849388122559 1.999996781349182 7.157299518585205 C 1.999996781349182 4.361749649047852 3.594646692276001 1.999999523162842 5.482186794281006 1.999999523162842 C 7.369726657867432 1.999999523162842 8.964376449584961 4.361749649047852 8.964376449584961 7.157299518585205 C 8.964376449584961 9.952849388122559 7.369726657867432 12.31459999084473 5.482186794281006 12.31459999084473 Z"/><path class="g" d="M 5.482186794281006 3.999999046325684 C 5.334816932678223 3.999999046325684 5.060916900634766 4.163459777832031 4.781206607818604 4.528629302978516 C 4.284736633300781 5.176799774169922 3.999996662139893 6.134909629821777 3.999996662139893 7.157299518585205 C 3.999996662139893 8.179689407348633 4.284736633300781 9.137800216674805 4.781206607818604 9.785969734191895 C 5.060916900634766 10.1511402130127 5.334816932678223 10.31459999084473 5.482186794281006 10.31459999084473 C 5.629556655883789 10.31459999084473 5.903456687927246 10.1511402130127 6.183166980743408 9.785969734191895 C 6.67963695526123 9.137800216674805 6.964376449584961 8.179689407348633 6.964376449584961 7.157299518585205 C 6.964376449584961 6.134909629821777 6.67963695526123 5.176799774169922 6.183166980743408 4.528629302978516 C 5.903456687927246 4.163459777832031 5.629556655883789 3.999999046325684 5.482186794281006 3.999999046325684 M 5.482186794281006 -9.5367431640625e-07 C 8.509916305541992 -9.5367431640625e-07 10.96437644958496 3.204429626464844 10.96437644958496 7.157299518585205 C 10.96437644958496 11.11016941070557 8.509916305541992 14.31459999084473 5.482186794281006 14.31459999084473 C 2.454456329345703 14.31459999084473 -2.86102294921875e-06 11.11016941070557 -2.86102294921875e-06 7.157299518585205 C -2.86102294921875e-06 3.204429626464844 2.454456329345703 -9.5367431640625e-07 5.482186794281006 -9.5367431640625e-07 Z"/></g></g></svg>
