<svg xmlns="http://www.w3.org/2000/svg" width="177.402" height="241.691" viewBox="0 0 177.402 241.691"><defs><style>.a{fill:#e1b07e;}.b{fill:#fff;}.c{fill:#f0c693;}.d{fill:#ffa114;}.e{fill:#c11923;}.f{fill:#f72c2f;}</style></defs><g transform="translate(-241.274 -185.939)"><path class="a" d="M375.364,596.061c-.009,0-45.486-8.6-45.486-8.6l-45.487,8.6c-13.538,2.559-29.068,6.678-37.22,18.732-8.128,12.015-5.487,28-5.487,41.768,0,0,176.387,0,176.387,0,0-18.214,4.543-37.5-12.514-50.021C396.6,599.965,385.96,598.064,375.364,596.061Z" transform="translate(0 -228.932)"/><path class="b" d="M375.364,607.469c10.6,2,21.238,3.9,30.193,10.476,17.057,12.519,12.514,31.806,12.514,50.021,0,0-176.387,0-176.387,0,0-13.767-2.641-29.753,5.487-41.768,8.152-12.054,23.682-16.173,37.22-18.732L328.475,621.2l46.888-13.729" transform="translate(0 -240.34)"/><rect class="a" width="35.589" height="39.146" transform="translate(312.085 327.984)"/><path class="c" d="M432.1,287.087c1.239,37.955-23.232,85.822-50.673,85.822s-45.4-37.49-50.311-75.145c-6.667-51.143,17.362-64.96,44.808-64.96C423.725,232.8,430.431,235.951,432.1,287.087Z" transform="translate(-50.583 -26.721)"/><path class="a" d="M560.075,388.5s6.7-6.105,6.993,1.85c0,0-.539,23.282-11.537,19.326Z" transform="translate(-179.177 -114.218)"/><path class="a" d="M320.494,380.2s-6.706-6.1-7,1.85c0,0,.539,23.282,11.54,19.326Z" transform="translate(-41.176 -109.487)"/><path d="M347.674,593.7c10.6,2,47.091,6.779,57.447,14.578,17.8,13.408,12.949,32.94,12.949,51.154,0,0-176.387,0-176.387,0,0-13.767-2.641-29.753,5.487-41.768,8.152-12.054,20.213-18.732,64.914-25.168l17.793,66.936Z" transform="translate(0 -231.803)"/><path class="d" d="M373.063,246.046s50.2-25.849,51.69,49.576c0,0,28.134-81.941-51.69-75.1,0,0-73.239-9.294-49.395,73.062C323.668,293.583,329.662,225.137,373.063,246.046Z" transform="translate(-44.256 -19.486)"/><path class="d" d="M413.859,201.053c0-2.918,24.289-28.45,52.76-5.878,0,0,22.241,22.38,40.927,10.909,0,0-59.612,38.353-85.409,8.994C422.137,215.078,413.859,207.153,413.859,201.053Z" transform="translate(-98.401)"/><path class="e" d="M426.127,660.27s-7.054,9.974-.823,37.8H439.35s7.337-24.687-1.817-37.8Z" transform="translate(-103.461 -270.445)"/><path class="f" d="M423.8,635.617h17.492s0,12.9-8.827,13.851C432.463,649.468,424.981,650.888,423.8,635.617Z" transform="translate(-104.068 -256.389)"/><path class="b" d="M390.381,592.5l16.391,18.386,19.2-17.185,8.976,46.915-28.175-27.95L378.6,639.35Z" transform="translate(-78.297 -231.803)"/></g></svg>