<svg xmlns="http://www.w3.org/2000/svg" width="177.401" height="240.045" viewBox="0 0 177.401 240.045"><defs><style>.a{fill:#ffa114;}.b{fill:#e1b07e;}.c{fill:#f0c693;}.d{fill:#1a1a1a;}</style></defs><g transform="translate(-1006.807 -953.41)"><path class="a" d="M1133.572,953.942s90.778,16.02,46.281,146.548c0,0-8.9,21.952,7.122,45.094H1069.494c16.02-23.142,7.122-45.094,7.122-45.094-44.5-130.528,46.279-146.548,46.279-146.548S1128.9,952.745,1133.572,953.942Z" transform="translate(-32.794 0)"/><rect class="b" width="35.595" height="39.16" transform="translate(1077.641 1093.778)"/><path class="c" d="M1197.661,1050.575c1.243,37.967-23.236,85.849-50.69,85.849s-45.4-37.5-50.322-75.169c-6.672-51.159,17.362-64.978,44.821-64.978C1189.289,996.277,1196,999.423,1197.661,1050.575Z" transform="translate(-50.571 -24.435)"/><path class="b" d="M1140.94,1359.534c-.009,0-45.5-8.6-45.5-8.6l-45.5,8.6c-13.542,2.558-29.082,6.678-37.231,18.736-8.133,12.019-5.489,28.009-5.489,41.782,0,0,176.442,0,176.442,0,0-18.22,4.54-37.513-12.518-50.036C1162.185,1363.438,1151.54,1361.537,1140.94,1359.534Z" transform="translate(0 -226.596)"/><path class="b" d="M1325.6,1151.973s6.708-6.107,7,1.851c0,0-.539,23.289-11.542,19.332Z" transform="translate(-179.134 -111.909)"/><path class="b" d="M1094.308,1156.362s-6.7-6.1-7,1.851c0,0,.539,23.291,11.544,19.332Z" transform="translate(-45.888 -114.412)"/><path class="a" d="M1154.637,1006.162s21.6,33.777,72.206,49.818c0,0,32.22-87.79-64.491-72.959C1162.352,983.021,1135.621,985.617,1154.637,1006.162Z" transform="translate(-80.374 -15.917)"/><path class="d" d="M1140.94,1366.552c10.6,2,21.245,3.9,30.2,10.478,17.058,12.523,12.518,31.816,12.518,50.036,0,0-176.442,0-176.442,0,0-13.773-2.644-29.762,5.489-41.781,8.149-12.058,23.689-16.178,37.231-18.736l17.5-3.31,28.005,38.317,33.343-37.309Z" transform="translate(0 -233.614)"/></g></svg>