<svg xmlns="http://www.w3.org/2000/svg" width="177.4" height="241.69" viewBox="0 0 177.4 241.69"><defs><style>.a{fill:#e1b07e;}.b{fill:#f0c693;}.c{fill:#3cb1a8;}.d{fill:#26120b;}</style></defs><g transform="translate(-1006.745 -172.336)"><rect class="a" width="35.36" height="38.895" transform="translate(1077.667 317.863)"/><path class="b" d="M1196.911,300.35c1.228,37.711-23.082,85.268-50.349,85.268s-45.1-37.251-49.982-74.665c-6.625-50.809,17.245-64.536,44.517-64.536C1188.588,246.418,1195.251,249.544,1196.911,300.35Z" transform="translate(-50.249 -42.444)"/><path class="a" d="M1140.837,609.615c-.013,0-45.486-8.541-45.486-8.541l-45.493,8.541c-13.533,2.546-29.068,6.636-37.218,18.614-8.125,11.934-5.484,27.818-5.484,41.5h176.384c0-18.1,4.543-37.26-12.509-49.7C1162.077,613.494,1151.434,611.607,1140.837,609.615Z" transform="translate(0 -255.699)"/><path class="a" d="M1325.509,402.094s6.663-6.062,6.95,1.844c0,0-.536,23.132-11.459,19.2Z" transform="translate(-179.114 -134.651)"/><path class="a" d="M1094.19,406.489s-6.659-6.067-6.956,1.838c0,0,.541,23.133,11.469,19.2Z" transform="translate(-45.876 -137.249)"/><path class="c" d="M1121.24,612.488c10.6,1.992,39,5.2,49.357,12.947,17.8,13.321,12.942,32.727,12.942,50.829H1007.155c0-13.678-2.641-29.561,5.484-41.5,8.15-11.978,23.834-17.51,52.657-21.492l30.054,44.647Z" transform="translate(0 -262.239)"/><path class="d" d="M1194.289,241.945c-.005-.045-.005-.09-.009-.13-.05-1.856-.18-3.725-.378-5.6-.344-17.438,6.292-40.9,6.292-40.9-9.6-1.216-16.574,9.614-16.574,9.614-11.05-9.06-14.807-28.84-14.807-28.84-.44,11.492-16.574,15.027-16.574,15.027-16.132-6.189-16.572-18.784-16.572-18.784-1.767,13.483-13.935,22.321-13.935,22.321-12.658-2.726-19.582-14.807-19.582-14.807,3.243,20.773-3.168,22.543-3.168,22.543-12.375,1.987-13.393-3.838-13.393-3.838.979,5.144,0,31.508,0,31.508s.017-.023.017-.037c-2.242,10.218-1.661,23.709,3.5,41.523,0,0,5.961-68.008,49.08-47.235,0,0,49.878-25.677,51.358,49.261a102.456,102.456,0,0,0,4.739-31.675A.268.268,0,0,0,1194.289,241.945Z" transform="translate(-43.842)"/></g></svg>