<svg xmlns="http://www.w3.org/2000/svg" width="192.475" height="252.329" viewBox="0 0 192.475 252.329"><defs><style>.a{fill:#701505;}.b{fill:#e1b07e;}.c{fill:#f0c693;}.d{fill:#fd672d;}.e{fill:#ca4222;}.f{fill:#bc2307;}</style></defs><g transform="translate(-1786.831 -190.87)"><path class="a" d="M1866.071,424.023h96.12c2.5,0,40.765-147.99-48.065-176.984C1914.126,247.039,1825.534,261.285,1866.071,424.023Z" transform="translate(-37.277 -30.513)"/><rect class="b" width="37.817" height="41.595" transform="translate(1863.514 337.312)"/><path class="c" d="M1987.2,285.562c1.32,40.333-24.683,91.2-53.849,91.2s-48.234-39.837-53.458-79.853c-7.087-54.347,18.447-69.028,47.615-69.028C1978.3,227.879,1985.425,231.223,1987.2,285.562Z" transform="translate(-49.904 -20.104)"/><path class="b" d="M1932.471,591.67l-48.336-9.135s-48.162,9.105-48.337,9.135c-14.386,2.723-30.893,7.1-39.552,19.909-8.639,12.766-5.831,29.756-5.831,44.383l187.438,0c0-19.356,4.823-39.851-13.3-53.155C1955.04,595.819,1943.731,593.8,1932.471,591.67Z" transform="translate(-1.71 -212.764)"/><path class="b" d="M2109.063,383.717s7.115-6.489,7.433,1.966c0,0-.573,24.741-12.261,20.535Z" transform="translate(-172.423 -103.468)"/><path class="b" d="M1877.915,388.1s-7.121-6.488-7.435,1.966c0,0,.576,24.742,12.263,20.539Z" transform="translate(-45.441 -105.852)"/><path class="d" d="M1932.471,602.535c11.26,2.13,22.569,4.148,32.084,11.136,18.121,13.3,13.3,33.8,13.3,53.155l-187.438,0c0-14.627-2.809-31.617,5.831-44.383,8.659-12.811,25.165-17.186,39.552-19.909l48.337,46.8Z" transform="translate(-1.71 -223.629)"/><path class="e" d="M1897.392,593.615l30.4,38.023,23.627-39.059,34.847,6.746-59.048,47.911-58.063-48Z" transform="translate(-44.719 -218.22)"/><path class="f" d="M1968.067,320.288c15.148-19.381-7.067-29.03-7.067-29.03,21.19-5.868.508-32.9.508-32.9,12.62-15.6-6.4-27.89-6.4-27.89,2.7-22.215-19.866-21.989-19.866-21.989-3.59-18.4-26.764-9.208-26.764-9.208-8-11.1-18.281-9.17-25.411-5.685-7.137-3.485-17.417-5.411-25.422,5.685,0,0-23.17-9.193-26.76,9.208,0,0-22.564-.227-19.862,21.989,0,0-19.017,12.292-6.4,27.89,0,0-20.685,27.028.507,32.9,0,0-22.217,9.649-7.065,29.03,0,0-24.243,25.055-1.521,34.98,0,0-14.986,18.912,14.476,29.31,0,0,17.844,21.745,29.961,0,0,0,15.655-12.758,2.019-25.761,0,0,8.079-18.2-7.069-25.294,0,0,9.425-16.546-8.159-22.216,0,0,12.829-19.1-5.162-30.35,0,0,24.417-8.586,13.321-27.165,0,0,17.548-9.307,13.467-25.839,0,0,17.505,6.928,25.585-3.151a33.577,33.577,0,0,0,8.081,4.409,33.65,33.65,0,0,0,8.076-4.409c8.079,10.08,25.585,3.151,25.585,3.151-4.083,16.533,13.466,25.839,13.466,25.839-11.1,18.58,13.319,27.165,13.319,27.165-17.985,11.248-5.156,30.35-5.156,30.35-17.588,5.67-8.163,22.216-8.163,22.216-15.148,7.09-7.067,25.294-7.067,25.294-13.634,13,2.018,25.761,2.018,25.761,12.118,21.745,29.965,0,29.965,0,29.458-10.4,14.474-29.31,14.474-29.31C1992.309,345.343,1968.067,320.288,1968.067,320.288Z"/></g></svg>